<?xml version="1.0" encoding="UTF-8" standalone="no"?>
<!-- Generator: Adobe Illustrator 19.0.0, SVG Export Plug-In . SVG Version: 6.00 Build 0)  -->

<svg
   version="1.1"
   id="Layer_1"
   x="0px"
   y="0px"
   viewBox="0 0 421.481 421.481"
   style="enable-background:new 0 0 421.481 421.481;"
   xml:space="preserve"
   sodipodi:docname="padlock-unlocked.svg"
   inkscape:version="1.1.1 (eb90963e84, 2021-10-02)"
   xmlns:inkscape="http://www.inkscape.org/namespaces/inkscape"
   xmlns:sodipodi="http://sodipodi.sourceforge.net/DTD/sodipodi-0.dtd"
   xmlns="http://www.w3.org/2000/svg"
   xmlns:svg="http://www.w3.org/2000/svg"><defs
   id="defs47" /><sodipodi:namedview
   id="namedview45"
   pagecolor="#ffffff"
   bordercolor="#666666"
   borderopacity="1.0"
   inkscape:pageshadow="2"
   inkscape:pageopacity="0.0"
   inkscape:pagecheckerboard="0"
   showgrid="false"
   inkscape:zoom="1.9502659"
   inkscape:cx="210.99687"
   inkscape:cy="210.74049"
   inkscape:window-width="1853"
   inkscape:window-height="1025"
   inkscape:window-x="67"
   inkscape:window-y="27"
   inkscape:window-maximized="1"
   inkscape:current-layer="g8" />
<g
   id="g12"
   style="display:inline">
	<g
   id="g10"
   style="display:inline">
		<g
   id="g8"
   style="display:inline">
			<path
   d="m 335.741,175 h -18.473 v -68.472 c 0,-28.455 -11.079,-55.205 -31.195,-75.321 C 265.958,11.083 239.205,0 210.741,0 152,0 104.213,47.788 104.213,106.528 V 175 H 85.741 c -4.142,0 -7.5,3.358 -7.5,7.5 v 231.481 c 0,4.142 3.358,7.5 7.5,7.5 h 250 c 4.142,0 7.5,-3.358 7.5,-7.5 V 182.5 c 0,-4.142 -3.358,-7.5 -7.5,-7.5 z M 119.213,106.528 C 119.213,56.059 160.272,15 210.741,15 c 24.456,0 47.442,9.522 64.724,26.813 17.284,17.284 26.803,40.267 26.803,64.715 V 175 h -20.185 v -68.472 c 0,-19.061 -7.423,-36.976 -20.896,-50.438 -13.46,-13.48 -31.375,-20.904 -50.446,-20.904 -39.338,0 -71.343,32.004 -71.343,71.343 V 175 h -20.185 z m 147.87,-0.001 V 175 H 154.398 v -68.472 c 0,-31.067 25.275,-56.343 56.343,-56.343 15.06,0 29.206,5.861 39.837,16.509 10.644,10.635 16.505,24.781 16.505,39.833 z m 61.158,299.954 h -235 V 190 h 235 z"
   id="path2"
   style="display:inline" />
			<rect
   style="fill:#dddddd;fill-opacity:1;stroke-width:1.00157"
   id="rect985"
   width="235"
   height="216.481"
   x="93.240997"
   y="190" /><path
   d="m 309.741,396.741 c 4.142,0 7.5,-3.358 7.5,-7.5 v -160.6 c 0,-4.142 -3.358,-7.5 -7.5,-7.5 -4.142,0 -7.5,3.358 -7.5,7.5 v 160.6 c 0,4.142 3.358,7.5 7.5,7.5 z"
   id="path4"
   style="display:inline" />
			<path
   d="m 302.813,210.11 c 0.094,0.222 0.049,0.115 0.002,0.005 2.017,4.773 8.539,6.223 12.228,2.425 2.895,-2.813 2.896,-7.787 0,-10.6 -2.466,-2.54 -6.555,-2.862 -9.47,-0.93 -2.925,1.939 -4.127,5.849 -2.763,9.093 -0.046,-0.11 -0.09,-0.213 0.003,0.007 z"
   id="path6"
   style="display:inline" />
		<rect
   style="fill:#ffffff;stroke-width:1.05395"
   id="rect1332"
   width="88.439514"
   height="49.876568"
   x="247.30148"
   y="125.12344" /><rect
   style="fill:#000000;fill-opacity:1;stroke-width:1.09982"
   id="rect1334"
   width="49.996437"
   height="18.50972"
   x="267.08301"
   y="106.527" /></g>
	</g>
</g>
<g
   id="g14"
   style="display:none">
</g>
<g
   id="g16"
   style="display:none">
</g>
<g
   id="g18"
   style="display:none">
</g>
<g
   id="g20"
   style="display:none">
</g>
<g
   id="g22"
   style="display:none">
</g>
<g
   id="g24"
   style="display:none">
</g>
<g
   id="g26"
   style="display:none">
</g>
<g
   id="g28"
   style="display:none">
</g>
<g
   id="g30"
   style="display:none">
</g>
<g
   id="g32"
   style="display:none">
</g>
<g
   id="g34"
   style="display:none">
</g>
<g
   id="g36"
   style="display:none">
</g>
<g
   id="g38"
   style="display:none">
</g>
<g
   id="g40"
   style="display:none">
</g>
<g
   id="g42"
   style="display:none">
</g>
</svg>
